<?xml version="1.0" encoding="UTF-8"?>
<svg id="Artwork" xmlns="http://www.w3.org/2000/svg" viewBox="0 0 64 64">
  <path d="M58.16,46.7c.03.86-.03,2.08-.14,2.98-.11.84-.29,1.65-.8,2.33-1.48,1.8-4.11,1.72-6.28,1.76-4.39.06-8.85.1-13.16.11-1.12,0-1.16-.12.1-.6,1.14-.45,2.71-1.07,3.98-1.57,3.9-1.53,7.67-3.01,11.55-4.54,1.24-.46,2.88-1.19,3.92-1.49.6-.13.79.21.82.99v.03Z"/>
  <path d="M31.75,10.58c.12-.44.56-.45.95-.45.85,0,2.57,0,3.82.01,4.16.02,8.8.04,12.89.08.27.02,1.75-.05,1.42.2-3.58,1.41-7.65,2.68-11.18,3.96-2.13.73-4.77,1.68-6.93,2.41-1.3.5-1.08-.97-1.12-2.14.05-1.31-.12-2.78.13-4.05v-.02Z"/>
  <g>
    <path d="M12.24,10.38c-1.51-.09-3.15.09-4.5.82-2.03,1.08-1.79,3.95-1.89,6.01-.03,3.85,0,9.8,0,14.14,0,3.07,0,10.56,0,13.32,0,.42.03.81.43,1.01,2.4,1.05,6.75,2.62,9.54,3.74,2.56,1.01,5.71,2.2,8.94,3.47,1.64.67,2.4.89,3.88.9,1.17-.04,3.04.37,3.21-1.27.12-9.83,0-23.48.04-33.36,0-1.02.08-2.14-1.01-2.53-1.81-.71-5.06-1.75-7-2.45-3.02-1.06-6.71-2.3-9.85-3.39-.58-.2-1.16-.35-1.76-.41h-.03ZM24.21,43.58c-.91,2.53-3.09,3.52-5.59,2.44-4.15-1.86-6.55-6.89-7.74-11.12-1.07-4.13-1.28-8.57.09-12.62.63-1.81,1.74-3.8,3.41-4.78,1.66-.97,3.69-.25,4.93,1.1,1.2,1.24,1.99,2.83,2.67,4.4,2.19,4.85,3.91,15.38,2.24,20.54v.03Z"/>
    <path d="M16.48,23.38c-1.52.33-2.38,2-2.81,3.4-1.11,3.97-.18,8.54,2.2,11.86,1.28,1.83,4.17,3.62,5.62.99.91-1.87.63-4.17.48-6.21-.28-2.82-1.72-10.44-5.45-10.05h-.03Z"/>
  </g>
  <path d="M53.54,25.47c-.44-3.79-3.26-10.5-7.98-7.77-4.33,2.88-6.16,12.34-6.54,17.42-.14,1.68-.18,3.45-.08,5.08.08,1.16.2,2.28.61,3.37,1.35,3.71,4.85,3.51,7.62,1.22,1.08-.88,1.96-1.98,2.71-3.1,3.05-4.66,4.38-10.65,3.67-16.17v-.04ZM47.44,38.49c-1.11,1.36-3.31,2.49-4.53.7-1.39-2.14-.58-6.74-.05-9.18.53-1.99,1.57-5.52,3.93-5.79,2.35.03,3.19,3.15,3.37,5.07.24,3.21-.65,6.68-2.69,9.17l-.02.03Z"/>
</svg>