<?xml version="1.0" encoding="UTF-8"?>
<svg xmlns="http://www.w3.org/2000/svg" version="1.1" xmlns:xlink="http://www.w3.org/1999/xlink" viewBox="0 0 697.7 293.2">
  <!-- Generator: Adobe Illustrator 29.1.0, SVG Export Plug-In . SVG Version: 2.1.0 Build 142)  -->
  <defs>
    <style>
      .st0, .st1 {
        fill: #0e97e2;
      }

      .st2, .st3, .st1 {
        mix-blend-mode: multiply;
      }

      .st2, .st4, .st1 {
        isolation: isolate;
      }

      .st2, .st5 {
        fill: #ed1c24;
      }

      .st3, .st6 {
        fill: #f9d53d;
      }

      .st7 {
        fill: #0d1120;
      }

      .st8 {
        display: none;
      }

      .st9 {
        font-family: Dorsa-Regular, Dorsa;
        font-size: 177.2px;
      }

      .st10 {
        font-family: MoglanDemo, MoglanDemo;
        font-size: 100px;
      }
    </style>
  </defs>
  <g class="st4">
    <g id="Reference" class="st8">
      <image width="290" height="90" transform="translate(-202.3 -328.2) scale(4.2)" xlink:href="theartco-logo-1.png"/>
    </g>
    <g id="Artwork">
      <path class="st5" d="M249-50.7h-122.5c-13.6,0-24.8-11.1-24.8-24.8v-122.5c0-13.6,11.1-24.8,24.8-24.8h122.5c13.6,0,24.8,11.1,24.8,24.8v122.5c0,13.6-11.1,24.8-24.8,24.8ZM126.5-217.7c-10.9,0-19.8,8.9-19.8,19.8v122.5c0,10.9,8.9,19.8,19.8,19.8h122.5c10.9,0,19.8-8.9,19.8-19.8v-122.5c0-10.9-8.9-19.8-19.8-19.8h-122.5Z"/>
      <path class="st6" d="M171-124.3H44.5c-20.3,0-36.8-16.5-36.8-36.8v-126.5c0-20.3,16.5-36.8,36.8-36.8h126.5c20.3,0,36.8,16.5,36.8,36.8v126.5c0,20.3-16.5,36.8-36.8,36.8ZM44.5-319.3c-17.5,0-31.8,14.2-31.8,31.8v126.5c0,17.5,14.2,31.8,31.8,31.8h126.5c17.5,0,31.8-14.2,31.8-31.8v-126.5c0-17.5-14.2-31.8-31.8-31.8H44.5Z"/>
      <path class="st0" d="M134.5-84.3h-58c-9.4,0-17-7.6-17-17v-58c0-9.4,7.6-17,17-17h58c9.4,0,17,7.6,17,17v58c0,9.4-7.6,17-17,17ZM76.5-171.3c-6.6,0-12,5.4-12,12v58c0,6.6,5.4,12,12,12h58c6.6,0,12-5.4,12-12v-58c0-6.6-5.4-12-12-12h-58Z"/>
      <g>
        <path d="M338.5-162.7v-25.3c.1,0,.1.3.1.3-1.9,5-3.9,9.2-6,12.5-2.1,3.3-4.1,6-6,8-1.9,2-3.8,3.4-5.5,4.2-1.7.8-3.3,1.2-4.6,1.2-3.5,0-6.5-.7-9-2.2-2.4-1.5-4.3-3.3-5.6-5.4-1.3-2.1-2-4.4-2.1-6.9,0-2.5.4-4.8,1.5-6.9,1.3-2.5,2.9-4.5,4.7-6,1.8-1.4,3.8-2.5,5.9-3.2,2.1-.7,4.4-1.2,6.6-1.4,2.3-.2,4.6-.5,7-.7,2.3-.2,4.6-.6,6.8-1,2.2-.4,4.3-1.2,6.3-2.4,0-2.9-.5-5.5-1.4-7.8-.9-2.3-2.4-3.7-4.4-4.4-2-.7-4.1-.9-6.4-.7-2.3.2-4.5.7-6.7,1.4-2.2.7-4.3,1.5-6.4,2.4-2,.9-3.8,1.8-5.4,2.6l-8.4-6c2.1-.8,4.8-1.6,8.1-2.4,3.3-.8,7.2-1.3,11.6-1.5,1.7-.1,3.3,0,4.9.2,1.6.3,3.2.7,4.7,1.2,2.9,1.1,5.7,2.5,8.2,4.2,1.3.9,2.5,1.8,3.5,2.9,1,1.1,1.9,2.2,2.6,3.5.7,1.3,1.4,2.7,1.9,4,.5,1.4.8,2.8.8,4.2v21.4c0,.9,0,1.7.1,2.2.1.5.3,1,.6,1.4.3.4.7.8,1.2,1.1.5.4,1.1.8,1.9,1.2l-11.5,4ZM338.6-196.2c-2.7,1.1-5.2,1.8-7.6,2-2.4.2-4.7.4-6.9.6-2.2.2-4.4.5-6.6,1-2.2.5-4.4,1.6-6.5,3.2-1.1.9-2,2-2.7,3.5-.7,1.4-1.1,3-1.3,4.6-.2,1.6-.2,3.3,0,5,.2,1.7.6,3.2,1.3,4.5.7,1.3,1.5,2.4,2.6,3.2,1.1.8,2.3,1.2,3.8,1.1,3.5-.2,6.5-1.1,9-2.7,2.5-1.6,4.7-3.4,6.4-5.4,1.7-2,3.1-4,4.1-5.9s1.7-3.2,2.1-4.1c1.6-3.2,2.4-6,2.4-8.5v-2.2Z"/>
        <path d="M378.8-213.7c2.4,0,4.5.2,6.3.5,1.8.4,3.3.8,4.4,1.1,1.3.5,2.5,1,3.4,1.6l-1.2,6.7c-.9-1.7-1.9-3.1-3.2-4.4-1.1-1.1-2.6-2.2-4.2-3.1-1.7-.9-3.7-1.4-6.1-1.4s-4.1.6-5.6,1.8c-1.6,1.2-2.9,2.7-3.9,4.7-1,1.9-1.8,4.1-2.3,6.5-.5,2.4-.8,5-.8,7.5v22.4c0,1.7.5,3.1,1.6,4.4l.4.4c1,1.1,2.3,1.8,3.9,2h0c0,.1-2,.1-2,.1h-17.4c1.6-.3,2.9-1,4-2.2l.3-.3c1.1-1.3,1.6-2.8,1.6-4.5v-30.2c0-3.9-1.3-7.2-3.9-10l11.5-3.1v10.3c.4-1.2.9-2.5,1.6-3.8.7-1.3,1.6-2.5,2.6-3.6,1-1.1,2.3-1.9,3.8-2.6,1.5-.7,3.2-1,5.2-1Z"/>
        <path d="M420.8-167.9c-.8,1.1-1.8,2.1-2.9,3-.9.7-2.1,1.4-3.5,2.1-1.4.6-3,.9-4.8.9-2.9,0-5-1-6.5-2.9-1.5-1.9-2.3-4.5-2.4-7.7h-.1v-38.7h-5.4v-1.9c1.9,0,3.6-.5,5.1-1.5,1.5-1,2.7-2.1,3.7-3.5,1-1.4,1.8-2.8,2.3-4.3.5-1.5.8-2.8.8-3.8h1.1v13h10.6v1.9h-10.6v38.2c0,2.8.6,4.7,1.7,5.8,1.1,1.1,2.6,1.6,4.3,1.6s1.9-.1,2.7-.4c.8-.3,1.5-.6,2-.9.7-.4,1.2-.9,1.7-1.4l.2.4Z"/>
      </g>
      <g>
        <path d="M343.7-85.1c-1.5,2-3.3,3.8-5.5,5.4-1.9,1.3-4.2,2.5-6.9,3.7-2.7,1.1-6,1.6-9.7,1.6s-7-.7-10.1-2c-3.1-1.4-5.9-3.2-8.2-5.5-2.3-2.3-4.2-5.1-5.6-8.2-1.4-3.1-2-6.5-2-10.1s.7-7,2-10.1c1.4-3.1,3.2-5.9,5.6-8.2,2.3-2.3,5.1-4.2,8.2-5.6,3.1-1.4,6.5-2,10.1-2s6.4.2,8.8.5c2.4.4,4.3.8,5.8,1.2,1.7.5,3.1,1,4.1,1.6l-1.2,6.7c-1-1.7-2.3-3.1-4-4.4-1.4-1.1-3.2-2.2-5.4-3.1-2.2-.9-4.9-1.3-8.1-1.3s-7.5,1.2-10.3,3.5c-2.8,2.3-4.9,5.2-6.2,8.8-1.4,3.5-2,7.3-1.9,11.3,0,4.1,1,7.9,2.6,11.4,1.7,3.5,4.1,6.4,7.4,8.8,3.3,2.3,7.5,3.5,12.5,3.5s5.4-.4,7.5-1.2c2.1-.8,3.9-1.8,5.4-2.8,1.7-1.2,3.2-2.5,4.4-4l.7.7Z"/>
        <path d="M373.6-126.2c3.6,0,7,.7,10.1,2,3.1,1.4,5.9,3.2,8.2,5.6,2.3,2.3,4.2,5.1,5.6,8.2,1.4,3.1,2.1,6.5,2.1,10.1s-.7,7-2.1,10.1c-1.4,3.2-3.2,5.9-5.6,8.2-2.3,2.3-5.1,4.2-8.2,5.6-3.1,1.4-6.5,2-10.1,2s-7-.7-10.1-2c-3.1-1.4-5.9-3.2-8.2-5.6-2.3-2.3-4.2-5.1-5.6-8.2-1.4-3.2-2.1-6.5-2.1-10.1s.7-7,2.1-10.1c1.4-3.1,3.2-5.9,5.6-8.2,2.3-2.3,5.1-4.2,8.2-5.6,3.1-1.4,6.5-2,10.1-2ZM373.6-75.3c2.5,0,4.9-.7,7.1-2s4.2-3.1,5.8-5.3c1.7-2.3,3-4.9,3.9-8,1-3,1.4-6.3,1.4-9.8s-.5-6.6-1.4-9.7c-1-3-2.3-5.7-3.9-8-1.7-2.3-3.6-4-5.8-5.3s-4.6-2-7.1-2-4.9.7-7.1,2-4.2,3.1-5.8,5.3c-1.7,2.3-3,4.9-3.9,8-1,3-1.4,6.2-1.4,9.7s.5,6.7,1.4,9.8c1,3,2.3,5.7,3.9,8,1.7,2.3,3.6,4,5.8,5.3s4.6,2,7.1,2Z"/>
        <path d="M485.3-75.2h-19.4c1.5-.3,2.9-1,4-2.1l.3-.4c1.1-1.3,1.6-2.7,1.6-4.4v-18.4c0-3.1,0-6.1-.2-9-.2-3-.6-5.6-1.2-7.9-.7-2.3-1.7-4.1-3-5.5-1.4-1.4-3.3-2.1-5.8-2.1s-4.8.8-6.6,2.3c-1.8,1.5-3.3,3.4-4.4,5.6-1.2,2.2-2,4.5-2.5,6.8-.5,2.3-.8,4.3-.8,5.9h0c0,.2,0,.4,0,.6,0,.2,0,.4,0,.6v21.4c.1,1.7.6,3,1.5,4.1l.7.7c1,1,2.2,1.6,3.7,1.8h0c0,0-2,0-2,0h-17.4c1.7-.3,3.1-1,4.2-2.3,1.1-1.3,1.7-2.9,1.7-4.7v-18.3c0-3.1,0-6.1-.2-9-.2-3-.6-5.6-1.2-7.9-.6-2.3-1.7-4.1-3-5.5-1.4-1.4-3.3-2.1-5.8-2.1s-4.8.8-6.6,2.3c-1.8,1.5-3.3,3.4-4.4,5.6-1.1,2.2-1.9,4.5-2.4,6.8-.5,2.3-.8,4.3-.8,5.9v22.4c0,1.7.5,3.1,1.6,4.4l.4.4c1.1,1.1,2.4,1.8,3.9,2h0c0,0-2,0-2,0h-17.4c1.6-.3,2.9-1,4-2.2l.3-.3c1.1-1.3,1.6-2.8,1.6-4.5v-30.2c0-3.9-1.3-7.2-3.9-10l11.5-3.1v11.6c.5-1.3,1.1-2.6,1.9-4,.8-1.4,1.8-2.8,3-4,1.2-1.2,2.6-2.2,4.2-3,1.6-.8,3.5-1.2,5.8-1.2s5.2.4,7.1,1.1c2,.7,3.6,1.7,4.9,3,1.3,1.3,2.3,2.8,3,4.5.7,1.8,1.3,3.6,1.6,5.6.4-1.2,1-2.6,1.7-4.3.7-1.7,1.7-3.2,2.9-4.7,1.2-1.5,2.7-2.7,4.5-3.8,1.8-1,3.9-1.5,6.4-1.5,3.7,0,6.7.6,9,1.9,2.3,1.3,4,3,5.2,5.1,1.2,2.1,2,4.6,2.4,7.3.4,2.7.6,5.6.7,8.6v21.2c0,1.7.5,3.1,1.6,4.4l.3.4c1.1,1.1,2.5,1.8,4,2h0Z"/>
        <path d="M510.9-126.2c5.5,0,10,1.3,13.7,3.9s6.4,5.8,8.3,9.6c1.9,3.8,2.8,8,2.8,12.5s-.9,8.7-2.7,12.5c-1.8,3.8-4.5,7-8.2,9.6-3.7,2.6-8.2,3.9-13.7,3.9s-3.9-.2-5.5-.7c-1.6-.4-2.9-1-4.1-1.5-1.2-.6-2.1-1.2-2.8-1.9-.7-.7-1.3-1.2-1.7-1.7v22.1c0,1.7.5,3.1,1.6,4.4l.3.5c.5.5,1.1,1,1.8,1.3.7.3,1.4.5,2.2.6h0c0,.1-2,.1-2,.1h-17.4c1.5-.3,2.9-1,4-2.1l.3-.3c1.1-1.4,1.6-2.9,1.6-4.5v-68.2l.6.7c1.5,1.8,3.5,2.8,5.8,3.1,2.3.3,4.5-.3,6.6-1.6,1.1-.7,2.3-1.2,3.6-1.6,1.4-.4,3-.6,4.9-.6ZM510.9-75.4c2.8,0,5.2-.7,7.3-2.1s3.9-3.3,5.3-5.6c1.4-2.3,2.5-5,3.2-8,.7-3,1.1-6.1,1.1-9.2,0-3.1-.3-6.2-1-9.2-.7-3-1.7-5.6-3.1-8-1.4-2.4-3.1-4.3-5.2-5.7-2.1-1.4-4.6-2.1-7.4-2.1s-3.5.3-5.2.8c-1.7.5-3.2,1.3-4.5,2.5-1.3,1.1-2.4,2.5-3.2,4s-1.2,3.4-1.2,5.5v30.2c.7,1.3,1.6,2.4,2.8,3.4,1.1.9,2.5,1.7,4.2,2.4,1.8.7,4.1,1.1,6.9,1.1Z"/>
        <path d="M577.6-75.2v-25.3c.1,0,.1.3.1.3-1.9,5-3.9,9.2-6,12.5-2.1,3.3-4.1,6-6,8-1.9,2-3.8,3.4-5.5,4.2-1.7.8-3.3,1.2-4.6,1.2-3.5,0-6.5-.7-9-2.2-2.4-1.5-4.3-3.3-5.6-5.4-1.3-2.1-2-4.4-2.1-6.9,0-2.5.4-4.8,1.5-6.9,1.3-2.5,2.9-4.5,4.7-6,1.8-1.4,3.8-2.5,5.9-3.2,2.1-.7,4.4-1.2,6.7-1.4,2.3-.2,4.6-.5,7-.7,2.3-.2,4.6-.6,6.8-1,2.2-.4,4.3-1.2,6.3-2.4,0-2.9-.5-5.5-1.4-7.8-.9-2.3-2.4-3.7-4.4-4.4-2-.7-4.1-.9-6.4-.7-2.3.2-4.5.7-6.7,1.3-2.2.7-4.3,1.5-6.3,2.4-2,.9-3.8,1.8-5.3,2.6l-8.4-6c2.1-.8,4.8-1.6,8.1-2.4,3.3-.8,7.2-1.3,11.6-1.5,1.7-.1,3.3,0,4.9.2,1.6.3,3.2.7,4.7,1.2,2.9,1.1,5.7,2.5,8.2,4.2,1.3.9,2.5,1.8,3.5,2.9,1,1.1,1.9,2.2,2.6,3.5.7,1.3,1.4,2.7,1.9,4,.5,1.4.8,2.8.8,4.2v21.4c0,.9,0,1.7.1,2.2.1.5.3,1,.6,1.4.3.4.7.8,1.2,1.1.5.4,1.2.8,2,1.2l-11.5,4ZM577.7-108.7c-2.7,1.1-5.2,1.8-7.6,2-2.4.2-4.7.4-7,.6-2.2.2-4.4.5-6.6,1-2.2.5-4.3,1.6-6.5,3.2-1.1.9-2,2-2.7,3.5-.7,1.4-1.1,3-1.3,4.6-.2,1.6-.2,3.3,0,5,.2,1.7.6,3.2,1.3,4.5.7,1.3,1.5,2.4,2.6,3.2,1.1.8,2.3,1.2,3.8,1.1,3.5-.2,6.5-1.1,9-2.7,2.5-1.6,4.7-3.4,6.4-5.4,1.7-2,3.1-4,4.1-5.9,1-1.9,1.7-3.2,2.1-4,1.6-3.2,2.4-6,2.4-8.5v-2.2Z"/>
        <path d="M642.9-75.2h-19.4c1.6-.3,2.9-1,3.9-2.1l.4-.4c1.1-1.3,1.6-2.8,1.6-4.5v-18.3c0-3.1-.2-6.1-.3-9-.1-3-.5-5.6-1.2-7.9-.7-2.3-1.7-4.1-3-5.5-1.4-1.4-3.3-2.1-5.8-2.1s-4.8.8-6.6,2.3c-1.8,1.5-3.3,3.4-4.5,5.6-1.2,2.2-2,4.5-2.5,6.8-.5,2.3-.8,4.3-.8,5.9v22.4c0,1.7.5,3.1,1.6,4.4l.4.4c1,1.1,2.3,1.8,3.9,2h0c0,0-2,0-2,0h-15.4,0-2.1c1.7-.3,3-1,4-2.1l.3-.4c1.1-1.3,1.6-2.8,1.6-4.5v-30.2c0-1.9-.3-3.7-.9-5.4-.6-1.7-1.6-3.3-3-4.6l11.5-3.1v11.6c.5-1.3,1.1-2.6,1.9-4,.8-1.4,1.8-2.8,3-4,1.2-1.2,2.6-2.2,4.2-3s3.6-1.2,5.8-1.2c3.8,0,6.8.6,9.1,1.9,2.2,1.3,4,3,5.2,5.1,1.2,2.1,2,4.6,2.4,7.3.4,2.7.6,5.6.7,8.6v21.2c0,1.7.6,3.1,1.7,4.4l.3.4c1,1.1,2.3,1.8,4,2h0Z"/>
        <path d="M685.2-125.5h0c-.8.4-1.5.8-2.2,1.3-.7.5-1.3,1.2-1.9,2-.6.9-1.2,2.1-2,3.5-.7,1.4-1.5,3.2-2.4,5.5l-13.8,36c-2,4.9-4.1,9.2-6.3,13-1,1.6-2,3.2-3.1,4.8-1.1,1.6-2.3,3-3.6,4.2-1.3,1.2-2.5,2.2-3.8,2.9-1.3.7-2.7,1.1-4,1.1l-2.4-7.7c3.6,0,6.7-.8,9.2-2.3,2.6-1.5,4.7-3.3,6.4-5.2,1.9-2.2,3.5-4.7,4.7-7.6l-18.2-46.8-2-4.6h17.7c-1.3.2-2.4.5-3.5,1-1.1.4-1.9,1.1-2.5,2-.6.9-.9,2.1-.8,3.5,0,1.5.6,3.3,1.5,5.5l11.5,29.5,11.6-30.5c.7-2,1.1-3.6,1-4.9,0-1.3-.3-2.3-.8-3.1s-1.2-1.4-2.1-1.8c-.9-.4-1.7-.8-2.6-1.1h0c0,0,14.4,0,14.4,0Z"/>
      </g>
      <g>
        <path d="M259.2-253.6c-.8,1.1-1.8,2.1-2.9,3-.9.7-2.1,1.4-3.5,2.1-1.4.6-3,.9-4.8.9-2.9,0-5-1-6.5-2.9-1.5-1.9-2.3-4.5-2.4-7.7h-.1v-38.7h-5.4v-1.9c1.9,0,3.6-.5,5.1-1.5,1.5-1,2.7-2.1,3.7-3.5,1-1.4,1.8-2.8,2.3-4.3.5-1.5.8-2.8.8-3.8h1.1v13h10.6v1.9h-10.6v38.2c0,2.8.6,4.7,1.7,5.8,1.1,1.1,2.6,1.6,4.3,1.6s1.9-.1,2.7-.4c.8-.3,1.5-.6,2-.9.7-.4,1.2-.9,1.7-1.4l.2.4Z"/>
        <path d="M313.1-248.4h-19.4c1.4-.3,2.7-1,3.9-2.1l.4-.4c1.1-1.3,1.6-2.7,1.6-4.4v-18.4c0-3.1-.2-6.1-.3-9-.1-3-.5-5.6-1.2-7.9-.7-2.3-1.7-4.1-3-5.6-1.4-1.4-3.3-2.1-5.8-2.1s-4.8.8-6.6,2.3c-1.8,1.5-3.3,3.4-4.4,5.6-1.2,2.2-2,4.5-2.5,6.8-.5,2.3-.8,4.3-.8,5.9v22.4c0,1.7.5,3.1,1.6,4.4l.3.4c1.1,1.1,2.5,1.8,4,2h0c0,.1-2,.1-2,.1h-17.4c1.5-.3,2.9-1,4-2.1l.4-.4c1-1.3,1.5-2.8,1.5-4.4v-51.6c0-3.9-1.3-7.2-3.9-10l11.5-3.6v33.4c.5-1.3,1.1-2.6,1.9-4,.8-1.4,1.8-2.8,3-4,1.2-1.2,2.6-2.2,4.2-3.1,1.6-.8,3.6-1.2,5.8-1.2,3.8,0,6.8.6,9.1,1.9,2.2,1.3,4,3,5.2,5.1,1.2,2.1,2,4.6,2.4,7.3.4,2.7.6,5.6.7,8.6v21.2c.1,1.7.7,3.2,1.7,4.5l.2.2c1.1,1.2,2.4,1.9,4.1,2.1h0Z"/>
        <path d="M345.2-251c2.8,0,5.3-.4,7.4-1.2,2.1-.8,3.9-1.8,5.4-2.8,1.7-1.2,3.2-2.5,4.4-4l.8.7c-1.5,2-3.3,3.8-5.5,5.4-1.9,1.3-4.2,2.5-6.9,3.6-2.7,1.1-6,1.6-9.8,1.6s-7-.7-10.1-2c-3.1-1.4-5.9-3.2-8.2-5.6-2.3-2.3-4.2-5.1-5.5-8.2-1.3-3.1-2-6.5-2-10.1s.7-7,2-10.1c1.3-3.1,3.2-5.9,5.5-8.2,2.3-2.3,5.1-4.2,8.2-5.6,3.1-1.4,6.5-2,10.1-2s5.3.4,7.5,1.1c2.2.8,4.1,1.8,5.7,3.1l.2.2c1.1.9,2,1.8,2.8,2.8,1.5,1.8,2.5,3.5,3.1,5.2.6,1.7,1,3.1,1.3,4.3.3,1.2.6,2.1.9,2.7s1,.8,2,.5v1.1l-10.4,3-30.2,9.2c.5,1.4,1.1,2.8,1.9,4.1.7,1.3,1.5,2.5,2.5,3.6l2,2c1.9,1.7,4,3,6.5,3.9,2.5,1,5.3,1.5,8.5,1.5ZM341-298.2c-3.9,0-7.2,1-9.9,2.9-2.7,1.9-4.8,4.4-6.3,7.4-1.5,3-2.4,6.4-2.6,10.1-.2,3.7.2,7.2,1.2,10.6l31.1-9.4c.3-1.8.3-3.9,0-6.4-.2-2.5-.9-4.9-1.9-7.1-1-2.2-2.5-4.1-4.4-5.7-1.9-1.6-4.3-2.4-7.2-2.4Z"/>
      </g>
      <text class="st10" transform="translate(232 -509.8)"><tspan x="0" y="0">the</tspan></text>
      <text class="st9" transform="translate(94.1 -676) scale(1.1 1)"><tspan x="0" y="0">theartcompany</tspan></text>
      <path class="st2" d="M168.8,188.7H52.6c-12.9,0-23.5-10.5-23.5-23.5V49.1c0-12.9,10.5-23.5,23.5-23.5h116.2c12.9,0,23.5,10.5,23.5,23.5v116.2c0,12.9-10.5,23.5-23.5,23.5Z"/>
      <path class="st3" d="M250.6,239.3h-81.7c-9.1,0-16.5-7.4-16.5-16.5v-81.7c0-9.1,7.4-16.5,16.5-16.5h81.7c9.1,0,16.5,7.4,16.5,16.5v81.7c0,9.1-7.4,16.5-16.5,16.5Z"/>
      <path class="st1" d="M168.2,266.3h-89.4c-14.4,0-26.2-11.8-26.2-26.2v-89.4c0-14.4,11.8-26.2,26.2-26.2h89.4c14.4,0,26.2,11.8,26.2,26.2v89.4c0,14.4-11.8,26.2-26.2,26.2Z"/>
      <g>
        <path class="st7" d="M212.5,59.8v-1.7h23.2v1.7h-23.2ZM226.9,99.2c-2.4,0-4.2-.5-5.4-1.6-1.2-1.1-2-2.4-2.5-4-.4-1.6-.6-3.2-.6-4.8v-39.5c1.3,0,2.7-.3,4.3-.8,1.5-.6,2.7-1.2,3.6-1.8v44.2c0,2.2.3,3.7.8,4.4s1.4,1.1,2.7,1.1,2.7-.6,4-1.8c1.3-1.2,2.3-2.6,3.1-4.2l1.5.9c-1.2,2.4-2.7,4.3-4.5,5.8-1.8,1.5-4.1,2.2-6.9,2.2Z"/>
        <path class="st7" d="M242.9,98.5v-1.7h5.8v-62.6h-5.8v-1.7h13.6v64.3h5.7v1.7h-19.4ZM269.8,98.5v-1.7h5.7v-25.1c0-2.5-.1-4.6-.3-6.5-.2-1.9-.7-3.3-1.5-4.4s-2-1.6-3.6-1.6c-2.4,0-4.4.6-6.1,1.9-1.7,1.3-3.1,2.9-4.2,4.9-1.1,2-1.9,4.1-2.4,6.4-.5,2.2-.8,4.3-.8,6.2l-1.1.2c0-1.9.3-4.1.8-6.6.5-2.5,1.4-4.9,2.6-7.2s2.8-4.2,4.8-5.7,4.5-2.3,7.5-2.3,5.9.6,7.7,1.7c1.7,1.1,2.9,2.7,3.5,4.7.6,2,.9,4.3.9,6.8v26.4h5.8v1.7h-19.2Z"/>
        <path class="st7" d="M316.6,99.4c-3.7,0-7.1-.8-10.1-2.5-3-1.7-5.4-4.1-7.2-7.3-1.8-3.2-2.7-6.9-2.7-11.3s.8-8.2,2.5-11.3,4-5.6,6.9-7.2c2.9-1.7,6.3-2.5,10-2.5s7.6.8,10.2,2.5c2.5,1.7,4.4,3.9,5.5,6.7,1.1,2.8,1.7,5.7,1.7,8.9h-30.9v-1.7h21.6c0-1.5,0-3-.2-4.8-.2-1.7-.5-3.3-1-4.8s-1.3-2.8-2.4-3.7c-1.1-1-2.6-1.5-4.4-1.5s-3.8.5-5.2,1.6c-1.3,1.1-2.4,2.5-3.1,4.3s-1.3,3.9-1.6,6.2c-.3,2.3-.5,4.7-.5,7.3s.2,4.9.5,7.2c.3,2.3.9,4.4,1.8,6.2.8,1.8,2,3.2,3.5,4.3,1.5,1,3.4,1.6,5.7,1.6,3.9,0,7.1-1,9.7-3,2.5-2,4.3-4.5,5.4-7.5h2c-1.1,3.5-3.2,6.5-6,8.8-2.9,2.3-6.7,3.5-11.5,3.5Z"/>
      </g>
      <g>
        <path class="st7" d="M362.6,399.2v-1.7h23.2v1.7h-23.2ZM377.1,438.6c-2.4,0-4.2-.5-5.4-1.6-1.2-1.1-2-2.4-2.5-4-.4-1.6-.6-3.2-.6-4.8v-39.5c1.3,0,2.7-.3,4.3-.8,1.5-.6,2.7-1.2,3.6-1.8v44.2c0,2.2.3,3.7.8,4.4s1.4,1.1,2.7,1.1,2.7-.6,4-1.8c1.3-1.2,2.3-2.6,3.1-4.2l1.5.9c-1.2,2.4-2.7,4.3-4.5,5.8-1.8,1.5-4.1,2.2-6.9,2.2Z"/>
        <path class="st7" d="M393,438v-1.7h5.8v-62.6h-5.8v-1.7h13.6v64.3h5.7v1.7h-19.4ZM419.9,438v-1.7h5.7v-25.1c0-2.5-.1-4.6-.3-6.5-.2-1.9-.7-3.3-1.5-4.4s-2-1.6-3.6-1.6c-2.4,0-4.4.6-6.1,1.9-1.7,1.3-3.1,2.9-4.2,4.9-1.1,2-1.9,4.1-2.4,6.4-.5,2.2-.8,4.3-.8,6.2l-1.1.2c0-1.9.3-4.1.8-6.6.5-2.5,1.4-4.9,2.6-7.2,1.2-2.3,2.8-4.2,4.8-5.7,2-1.5,4.5-2.3,7.5-2.3s5.9.6,7.7,1.7c1.7,1.1,2.9,2.7,3.5,4.7.6,2,.9,4.3.9,6.8v26.4h5.8v1.7h-19.2Z"/>
        <path class="st7" d="M466.7,438.9c-3.7,0-7.1-.8-10.1-2.5-3-1.7-5.4-4.1-7.2-7.3-1.8-3.2-2.7-6.9-2.7-11.3s.8-8.2,2.5-11.3,4-5.6,6.9-7.2c2.9-1.7,6.3-2.5,10-2.5s7.6.8,10.2,2.5c2.5,1.7,4.4,3.9,5.5,6.7,1.1,2.8,1.7,5.7,1.7,8.9h-30.9v-1.7h21.6c0-1.5,0-3-.2-4.8-.2-1.7-.5-3.3-1-4.8-.5-1.5-1.3-2.8-2.4-3.7-1.1-1-2.6-1.5-4.4-1.5s-3.8.5-5.2,1.6c-1.3,1.1-2.4,2.5-3.1,4.3s-1.3,3.9-1.6,6.2c-.3,2.3-.5,4.7-.5,7.3s.2,4.9.5,7.2c.3,2.3.9,4.4,1.8,6.2.8,1.8,2,3.2,3.5,4.3,1.5,1,3.4,1.6,5.7,1.6,3.9,0,7.2-1,9.7-3,2.5-2,4.3-4.5,5.4-7.5h2c-1.1,3.5-3.2,6.5-6,8.8-2.9,2.3-6.7,3.5-11.5,3.5Z"/>
      </g>
      <g>
        <path class="st7" d="M312.3,167c-3.8,0-6.9-1-9.1-2.9-2.3-2-3.4-4.6-3.4-7.9s1.7-7,5.1-9.3c3.4-2.2,8.2-3.4,14.4-3.4h10v1.5h-10c-2.6,0-4.7.5-6.2,1.6-1.6,1.1-2.7,2.4-3.5,4-.7,1.6-1.1,3.2-1.1,4.8s.2,2.9.7,4.2c.5,1.4,1.2,2.5,2.2,3.3,1,.9,2.2,1.3,3.8,1.3s3.2-.5,4.8-1.6c1.5-1.1,2.8-2.7,3.8-4.8s1.5-4.8,1.5-8h1c0,3.3-.5,6.3-1.6,8.8s-2.6,4.5-4.7,6c-2.1,1.4-4.6,2.2-7.6,2.2ZM332.8,167c-1.4,0-2.6-.2-3.8-.7-1.2-.5-2.1-1.3-2.8-2.4-.7-1.1-1.1-2.6-1.1-4.6v-20c0-2.1-.2-4.1-.5-6.1-.4-1.9-1.1-3.5-2.2-4.8-1.1-1.2-2.9-1.8-5.2-1.8s-2.7.1-4.1.4c-1.4.3-2.7.7-4,1.3-1.2.6-2.2,1.4-3,2.3-.8.9-1.1,2-1.1,3.2h-2.1c0-1.5.5-2.7,1.5-3.5,1-.9,2.1-1.3,3.2-1.3s2.4.4,3.5,1.2c1,.8,1.6,2,1.6,3.5s-.5,3-1.6,3.8c-1.1.8-2.2,1.2-3.4,1.2s-2.5-.4-3.4-1.2c-.9-.8-1.4-2-1.4-3.6s.4-2.6,1.3-3.7c.9-1.1,2.1-2,3.6-2.8,1.5-.8,3.2-1.4,5.1-1.8,1.9-.4,3.8-.6,5.8-.6,4,0,7.1.7,9.1,2.1,2,1.4,3.4,3.2,4,5.4.7,2.2,1,4.5,1,6.9v21.6c0,1,.2,1.8.5,2.5.3.7,1,1,2.1,1s1.6-.3,2.5-.9c.9-.6,1.6-1.4,2.1-2.4l.8,1.6c-.8,1.2-1.8,2.2-3.2,3.1-1.4.8-3,1.3-5,1.3Z"/>
        <path class="st7" d="M358.4,125.6v38.8h6.2v1.7h-19.7v-1.7h5.8v-37h-5.8v-1.7h13.5ZM357.4,147.2c0-2.6.3-5.2.8-7.8.5-2.6,1.4-5,2.5-7.3,1.1-2.2,2.5-4,4.2-5.3,1.7-1.3,3.6-2,5.9-2s3,.3,4.2.9c1.1.6,2,1.4,2.6,2.4.6,1,.9,2.1.9,3.2s-.4,2.8-1.3,3.8c-.9,1-2.1,1.6-3.7,1.6s-2.8-.4-3.7-1.3c-.9-.9-1.4-2-1.4-3.3s.5-2.9,1.6-3.7,2.2-1.2,3.5-1.2,1.7.2,2.5.5c.7.4,1.3.8,1.8,1.5s.7,1.3.7,2.1h-1.7c0-.9-.3-1.7-.8-2.4-.5-.7-1.3-1.3-2.2-1.7-.9-.4-1.9-.6-3-.6-1.8,0-3.4.6-4.9,1.8-1.5,1.2-2.8,2.8-3.8,4.8-1.1,2-1.9,4.2-2.5,6.7-.6,2.4-.9,4.9-.9,7.4h-1Z"/>
        <path class="st7" d="M383,127.3v-1.7h23.2v1.7h-23.2ZM397.4,166.7c-2.4,0-4.2-.5-5.4-1.6-1.2-1.1-2-2.4-2.5-4-.4-1.6-.6-3.2-.6-4.8v-39.5c1.3,0,2.7-.3,4.3-.8,1.5-.6,2.7-1.2,3.6-1.8v44.2c0,2.2.3,3.7.8,4.4s1.4,1.1,2.7,1.1,2.7-.6,4-1.8c1.3-1.2,2.3-2.6,3.1-4.2l1.5.9c-1.2,2.4-2.7,4.3-4.5,5.8-1.8,1.5-4.1,2.2-6.9,2.2Z"/>
        <path class="st7" d="M320.3,244c-3.8,0-7.3-.8-10.3-2.5-3-1.7-5.4-4.1-7.1-7.3-1.7-3.2-2.6-6.9-2.6-11.3s.8-7.3,2.4-10.5c1.6-3.2,3.9-5.8,6.9-7.7,3-1.9,6.8-2.9,11.2-2.9s5.6.5,7.7,1.5c2.2,1,3.8,2.4,5,4,1.2,1.6,1.8,3.4,1.8,5.2s-.5,2.8-1.4,3.7c-.9.9-2,1.3-3.4,1.3s-1.5-.2-2.3-.5c-.8-.3-1.4-.9-2-1.6-.5-.7-.8-1.7-.8-2.8s.5-2.7,1.5-3.5c1-.8,2.2-1.2,3.5-1.2s2.4.4,3.3,1.2c.9.8,1.4,1.9,1.4,3.5h-1.7c0-1.4-.3-2.6-1-3.7-.7-1.1-1.6-2-2.8-2.8-1.2-.8-2.4-1.4-3.8-1.8-1.4-.4-2.8-.6-4.2-.6-2.5,0-4.6.6-6.2,1.8-1.6,1.2-2.8,2.8-3.7,4.7-.9,1.9-1.5,4-1.8,6.3-.3,2.2-.5,4.4-.5,6.5s.2,4.9.5,7.2c.4,2.3,1,4.3,1.8,6.1.9,1.8,2,3.2,3.5,4.2,1.5,1,3.4,1.5,5.6,1.5s4.5-.4,6.2-1.3c1.7-.9,3.1-2.1,4.3-3.7,1.2-1.6,2.1-3.3,2.9-5.3h1.8c-1.1,3.5-3,6.5-5.4,8.8-2.5,2.3-5.9,3.5-10.4,3.5Z"/>
        <path class="st7" d="M365.3,244c-4.1,0-7.7-1-10.7-2.9-3-1.9-5.4-4.5-7-7.7-1.6-3.2-2.5-6.7-2.5-10.5s.8-7.3,2.5-10.5c1.6-3.2,4-5.8,7-7.7,3-1.9,6.6-2.9,10.7-2.9s7.7,1,10.7,2.9c3,1.9,5.3,4.5,7,7.7s2.4,6.7,2.4,10.5-.8,7.3-2.4,10.5-3.9,5.8-7,7.7c-3,1.9-6.6,2.9-10.7,2.9ZM365.3,242.3c2.4,0,4.3-.6,5.8-1.8,1.5-1.2,2.6-2.8,3.4-4.8.8-2,1.3-4.1,1.6-6.3.3-2.3.4-4.4.4-6.5s-.1-4.2-.4-6.5c-.3-2.2-.8-4.3-1.6-6.3-.8-2-1.9-3.6-3.4-4.8-1.5-1.2-3.4-1.8-5.8-1.8s-4.3.6-5.8,1.8c-1.5,1.2-2.6,2.8-3.4,4.8-.8,2-1.3,4.1-1.6,6.3-.3,2.2-.4,4.4-.4,6.5s.1,4.2.4,6.5c.3,2.3.8,4.4,1.6,6.3.8,2,1.9,3.6,3.4,4.8,1.5,1.2,3.4,1.8,5.8,1.8Z"/>
        <path class="st7" d="M406.6,202.6v38.8h5.7v1.7h-19.1v-1.7h5.8v-37h-5.8v-1.7h13.5ZM431.7,215v26.4h5.7v1.7h-19.1v-1.7h5.7v-25.4c0-2.5,0-4.6-.3-6.4-.2-1.8-.6-3.2-1.3-4.2-.7-1-1.8-1.5-3.4-1.5s-3.9.7-5.5,2c-1.6,1.3-2.8,3-3.8,5-1,2-1.8,4.1-2.3,6.3-.5,2.2-.7,4.2-.7,5.9l-1,.2c0-1.9.2-4.1.7-6.6.5-2.4,1.3-4.8,2.4-7.1s2.7-4.1,4.6-5.6c1.9-1.5,4.3-2.2,7.2-2.2s5.2.6,6.8,1.7c1.6,1.1,2.7,2.7,3.3,4.7s.9,4.3.9,6.8ZM456.7,215v26.4h5.8v1.7h-19.2v-1.7h5.7v-25.4c0-2.5-.1-4.6-.4-6.4-.3-1.8-.8-3.2-1.6-4.2-.8-1-1.9-1.5-3.5-1.5s-4,.7-5.5,2c-1.5,1.3-2.7,3-3.7,5-.9,2-1.6,4.1-2.1,6.3-.4,2.2-.7,4.2-.7,5.9l-1.1.2c0-1.9.2-4.1.7-6.6.4-2.4,1.2-4.8,2.3-7.1,1.1-2.3,2.6-4.1,4.5-5.6,1.9-1.5,4.3-2.2,7.3-2.2s5.2.6,6.9,1.7c1.7,1.1,2.8,2.7,3.5,4.7s1.1,4.3,1.1,6.8Z"/>
        <path class="st7" d="M468.9,265.1v-1.7h5.8v-59h-5.8v-1.7h13.6v12.8c1-4.2,2.7-7.5,5.1-10s5.4-3.7,9-3.7,6,.8,8.8,2.5c2.8,1.7,5,4.1,6.7,7.2,1.7,3.1,2.6,6.9,2.6,11.3s-.9,8.2-2.6,11.3c-1.7,3.2-4,5.6-6.7,7.3-2.8,1.7-5.7,2.5-8.8,2.5s-6.5-1.2-9-3.7c-2.4-2.5-4.2-5.8-5.1-10v33.1h5.7v1.7h-19.4ZM495,241.6c2.3,0,4.2-.7,5.8-2.2s2.8-3.6,3.6-6.4c.8-2.8,1.2-6.2,1.2-10.1s-.4-7.3-1.2-10.1c-.8-2.8-2-4.9-3.6-6.4-1.6-1.5-3.5-2.2-5.8-2.2s-4.3.7-6.2,2.2c-1.9,1.5-3.4,3.6-4.6,6.4-1.2,2.8-1.8,6.2-1.8,10.1s.6,7.3,1.8,10.1c1.2,2.8,2.7,4.9,4.6,6.4,1.9,1.5,4,2.2,6.2,2.2Z"/>
        <path class="st7" d="M535.8,244c-3.8,0-6.9-1-9.1-2.9-2.3-2-3.4-4.6-3.4-7.9s1.7-7,5.1-9.3c3.4-2.2,8.2-3.4,14.4-3.4h10v1.5h-10c-2.6,0-4.7.5-6.2,1.6-1.6,1.1-2.7,2.4-3.5,4-.7,1.6-1.1,3.2-1.1,4.8s.2,2.9.7,4.2c.5,1.4,1.2,2.5,2.2,3.3s2.2,1.3,3.8,1.3,3.2-.5,4.8-1.6c1.5-1.1,2.8-2.7,3.8-4.8s1.5-4.8,1.5-8h1c0,3.3-.5,6.3-1.6,8.8-1.1,2.6-2.6,4.5-4.7,6-2.1,1.4-4.6,2.2-7.6,2.2ZM556.3,244c-1.4,0-2.6-.2-3.8-.7-1.2-.5-2.1-1.3-2.8-2.4s-1.1-2.6-1.1-4.6v-20c0-2.1-.2-4.1-.5-6.1-.4-1.9-1.1-3.5-2.2-4.8-1.1-1.2-2.9-1.8-5.2-1.8s-2.7.1-4.1.4c-1.4.3-2.7.7-4,1.3-1.2.6-2.2,1.4-3,2.3s-1.1,2-1.1,3.2h-2.1c0-1.5.5-2.7,1.5-3.5,1-.9,2.1-1.3,3.2-1.3s2.4.4,3.5,1.2,1.6,2,1.6,3.5-.5,3-1.6,3.8c-1.1.8-2.2,1.2-3.4,1.2s-2.5-.4-3.4-1.2c-.9-.8-1.4-2-1.4-3.6s.4-2.6,1.3-3.7c.9-1.1,2.1-2,3.6-2.8,1.5-.8,3.2-1.4,5.1-1.8,1.9-.4,3.8-.6,5.8-.6,4,0,7.1.7,9.1,2.1s3.4,3.2,4,5.4,1,4.5,1,6.9v21.6c0,1,.2,1.8.5,2.5s1,1,2.1,1,1.6-.3,2.5-.9c.9-.6,1.6-1.4,2.1-2.4l.8,1.6c-.8,1.2-1.8,2.2-3.2,3.1-1.4.8-3,1.3-5,1.3Z"/>
        <path class="st7" d="M581.9,202.6v38.8h5.7v1.7h-19.1v-1.7h5.8v-37h-5.8v-1.7h13.5ZM608.7,215v26.4h5.8v1.7h-19.2v-1.7h5.7v-25.1c0-2.5-.1-4.6-.3-6.5-.2-1.9-.7-3.3-1.5-4.4s-2-1.6-3.6-1.6c-2.4,0-4.4.6-6.2,1.9-1.7,1.3-3.2,2.9-4.3,4.9-1.1,2-1.9,4.1-2.5,6.4-.5,2.2-.8,4.3-.8,6.2l-1.1.2c0-1.9.3-4.1.8-6.6.5-2.5,1.4-4.9,2.6-7.2,1.2-2.3,2.8-4.2,4.9-5.7,2.1-1.5,4.6-2.3,7.7-2.3s6,.6,7.7,1.7c1.7,1.1,2.8,2.7,3.4,4.7s.9,4.3.9,6.8Z"/>
        <path class="st7" d="M630.6,204.3l14.8,30.7-4.3,9.8-19.3-40.5h-4v-1.7h19.8v1.7h-7ZM663.8,202.6v1.7h-5l-23.7,56.2c-.8,1.8-1.7,3.2-2.6,4.2-.9,1-2.2,1.5-3.9,1.5s-1.5-.2-2.2-.5c-.8-.3-1.4-.8-1.9-1.5-.5-.7-.8-1.6-.8-2.7s.2-1.8.6-2.6c.4-.7,1-1.3,1.7-1.7.7-.4,1.6-.6,2.5-.6s1.4.2,2,.5c.6.3,1.2.7,1.6,1.3.5.5.7,1.2.9,1.9l23.7-56h-7v-1.7h14Z"/>
        <path class="st7" d="M669.2,244c-1,0-1.8-.2-2.6-.7s-1.4-1.1-1.9-1.9c-.5-.8-.7-1.7-.7-2.7s.2-1.9.7-2.7,1.1-1.5,1.9-1.9,1.7-.7,2.6-.7,1.9.2,2.7.7,1.4,1.1,1.9,1.9c.5.8.7,1.7.7,2.7s-.2,1.9-.7,2.7c-.5.8-1.1,1.4-1.9,1.9s-1.7.7-2.7.7Z"/>
      </g>
      <rect class="st7" x="-211.8" y="109.4" width="114.3" height="80.1"/>
    </g>
  </g>
</svg>