<?xml version="1.0" encoding="UTF-8"?>
<svg id="Layer_1" data-name="Layer 1" xmlns="http://www.w3.org/2000/svg" viewBox="0 0 512 512">
  <defs>
    <style>
      .cls-1 {
        fill: #333;
      }
    </style>
  </defs>
  <path class="cls-1" d="M50.87,439.85c-24.75-10.97-14.35-49.45-16.57-77.65,0-74.56,0-197.63,0-249.17-2.39-43.09,20.13-45.89,57.25-45.87,85.5,2.06,188.91-5.43,277.4,6.04,48.66,7.37,105.06,30.12,116.27,83,5.28,21.79-1.15,45.46-14.57,62.74-8.85,12.43-15.95,21.58-14.12,30.57.96,7.73,10.97,18.14,18.74,26.73,29.46,29.21,29.92,78.77,4.04,110.46-56.38,64.99-158.42,56.72-237.11,58.11-33.44,0-78.7,0-115.16,0-29.87-.83-52.78,2.81-75.65-4.73l-.53-.22ZM218.02,203.38c4.93,4.99,14.88,5.62,26.19,5.65,16.83-.42,36.59,1.2,49.52-8.99,8.34-6.48,10.47-18.79,3.61-27.07-12.62-16.35-48.44-13.73-69.13-11.79-18.26,2.21-19.6,29.73-10.74,41.65l.55.56ZM218.2,345.71c5.35,5.46,16.13,6.23,28.46,6.28,11.94-.01,25.16,0,35.59-1.69,19.8-1.39,38.63-21.15,23.32-38.38-8.17-9.57-24.13-12.34-43.21-12.63-18.53-.17-37.51-1.44-44.72,7.29-7.67,10.21-7.7,28.72,0,38.56l.56.57Z"/>
</svg>