<?xml version="1.0" encoding="UTF-8"?>
<svg id="Layer_1" data-name="Layer 1" xmlns="http://www.w3.org/2000/svg" viewBox="0 0 512 512">
  <defs>
    <style>
      .cls-1 {
        fill: #333;
      }
    </style>
  </defs>
  <path class="cls-1" d="M256.1,456.15c-81.09-.24-188.5-17.38-220.32-101.84-13.42-35.18-10.25-66.5-10.75-105.21,0-34.87,0-81.54,0-113.29,1-36.9-1.71-56.72,36.88-61,33.52-2.42,76.56-3.46,111.15,1.02,24.18,2.76,29.23,20.18,29.91,42.98.62,28.09.1,57.56.27,86.22.13,26.27-.34,56.89.34,80.18-.94,34.15,20,57.02,52.41,57.41,32.42-.42,53.35-23.23,52.41-57.41.67-23.31.21-53.88.34-80.17.16-28.66-.35-58.13.26-86.22.66-22.73,5.74-40.25,29.91-42.97,34.57-4.49,77.68-3.45,111.15-1.02,38.6,4.28,35.87,24.11,36.88,61,0,31.76,0,78.43,0,113.29-.47,38.71,2.67,70.06-10.76,105.22-31.81,84.09-138.23,101.56-218.92,101.83h-1.18Z"/>
</svg>