<?xml version="1.0" encoding="UTF-8"?>
<svg id="Layer_1" data-name="Layer 1" xmlns="http://www.w3.org/2000/svg" viewBox="0 0 512 512">
  <defs>
    <style>
      .cls-1 {
        fill: #333;
      }
    </style>
  </defs>
  <path class="cls-1" d="M488.77,392.48c.25,7.68-.25,18.47-1.21,26.5-.96,7.51-2.62,14.7-7.16,20.73-13.19,16.02-36.61,15.32-55.87,15.64-39.08.55-78.81.86-117.15.96-9.97-.07-10.29-1.04.88-5.36,10.1-3.97,24.14-9.49,35.46-13.94,34.71-13.64,68.25-26.82,102.81-40.4,11.06-4.11,25.62-10.63,34.91-13.25,5.3-1.2,7,1.85,7.32,8.83v.28Z"/>
  <path class="cls-1" d="M253.81,71.03c1.11-3.95,5.02-4,8.47-3.99,7.56,0,22.84.08,34.02.12,37.05.15,78.35.38,114.67.73,2.42.2,15.54-.45,12.67,1.76-31.9,12.53-68.1,23.84-99.45,35.22-18.93,6.52-42.47,14.97-61.67,21.42-11.59,4.45-9.57-8.6-9.94-19.02.43-11.7-1.1-24.77,1.16-36.06l.06-.18Z"/>
  <g>
    <path class="cls-1" d="M80.11,69.28c-13.41-.82-28.02.81-40.07,7.28-18.05,9.61-15.94,35.12-16.78,53.46-.23,34.25.01,87.23-.07,125.85-.08,27.29.03,94,.03,118.55.05,3.77.26,7.19,3.82,9,21.34,9.34,60.03,23.31,84.9,33.31,22.81,9.03,50.78,19.56,79.59,30.86,14.61,5.95,21.34,7.95,34.51,8.03,10.4-.33,27.01,3.31,28.55-11.31,1.04-87.47.01-208.94.36-296.89.03-9.11.71-19-8.96-22.49-16.07-6.33-44.99-15.54-62.33-21.77-26.89-9.4-59.75-20.5-87.65-30.18-5.17-1.75-10.37-3.16-15.66-3.68l-.24-.02ZM186.68,364.73c-8.12,22.47-27.49,31.32-49.72,21.74-36.93-16.58-58.25-61.35-68.86-98.96-9.54-36.72-11.41-76.23.76-112.3,5.59-16.09,15.51-33.79,30.37-42.53,14.74-8.59,32.8-2.22,43.89,9.8,10.65,11.02,17.68,25.19,23.77,39.13,19.45,43.14,34.83,136.84,19.9,182.82l-.11.3Z"/>
    <path class="cls-1" d="M117.87,185c-13.55,2.96-21.17,17.79-25.01,30.25-9.85,35.37-1.58,76.02,19.55,105.59,11.35,16.32,37.12,32.23,50,8.8,8.14-16.68,5.59-37.12,4.27-55.27-2.47-25.11-15.27-92.9-48.53-89.43l-.28.05Z"/>
  </g>
  <path class="cls-1" d="M447.7,203.57c-3.91-33.74-28.98-93.42-71.05-69.19-38.52,25.64-54.82,109.8-58.24,155-1.21,14.91-1.64,30.72-.72,45.22.67,10.3,1.79,20.29,5.44,29.99,11.98,32.98,43.2,31.28,67.84,10.83,9.61-7.85,17.46-17.58,24.09-27.61,27.11-41.46,39.01-94.82,32.7-143.91l-.05-.34ZM393.43,319.39c-9.88,12.09-29.45,22.17-40.3,6.24-12.33-19-5.18-59.95-.49-81.73,4.68-17.67,13.96-49.11,34.99-51.51,20.95.24,28.38,28,29.98,45.14,2.17,28.61-5.77,59.45-23.97,81.61l-.22.25Z"/>
</svg>