<?xml version="1.0" encoding="UTF-8"?>
<svg id="Layer_1" data-name="Layer 1" xmlns="http://www.w3.org/2000/svg" viewBox="0 0 512 512">
  <defs>
    <style>
      .cls-1 {
        fill: #333;
      }
    </style>
  </defs>
  <path class="cls-1" d="M250.53,456.01c-76.79-1.23-170.39-9.07-219.6-72.89-26.62-42.37.72-54.09,41.88-53.52,26.31-.04,53.57-.78,79.79,1.08,36.8,2.43,69.49,18.96,106.61,16.84,13.49-.03,41.37-9.35,21.58-22.04-20.18-12.12-65.05-13.92-92.39-18.78-40.48-6.21-77.2-14.48-110.6-34.22-55.63-30.69-67.59-101.01-22.11-146.02,26.51-26.73,64.42-41.42,100.84-49.84,88.66-17.22,194.56-13.69,271.87,38.25,19.96,13.14,58.49,54.7,25.29,70.56-15.61,6.6-47.25,4.94-76.47,5.2-23.97.23-53.05-.26-72.53-4.53-19.46-3.95-50.2-11.56-66.26-5.46-5.36,1.6-10.36,6.85-5.76,12.09,4.72,7.75,33.08,14.71,51.56,16.6,66.23,10.05,138.82,11.56,186.78,61.59,23.29,26.54,27.04,67.26,10.22,98.19-42.68,72.97-150.56,85.64-229.46,86.89h-1.25Z"/>
</svg>